<svg id="Layer_1" data-name="Layer 1" xmlns="http://www.w3.org/2000/svg" viewBox="0 0 501.29 311.56"><defs><style>.cls-1{fill:#fff;}</style></defs><title>logo</title><path class="cls-1" d="M248.6,162.88c-9.77,1.93-21.8-2.41-26.42-12l-34-56.53c-2.26-4.59-.27-9.47,3.65-11s18.83-3.54,37.85-8.6,26.36-8.5,31.89-10,12.78,1.34,16.25,6.82l34,53.7c4.35,6.88,2.29,16.21-4.86,19.56-.17.08-9.1,4.83-26,10.08A307.8,307.8,0,0,1,248.6,162.88Z"/><path d="M243.92,164.3c-8.62,0-18.33-4.1-22.62-13.05l-34-56.45a9.52,9.52,0,0,1-.49-7.7,8.29,8.29,0,0,1,4.62-4.72,90,90,0,0,1,11-2.54c6.86-1.37,16.26-3.25,26.95-6.09,12.67-3.37,20-6,25.35-7.87,2.6-.92,4.66-1.65,6.53-2.18C267.35,62,275,65.18,278.6,70.94l33.95,53.7a15.37,15.37,0,0,1,1.82,12.54,13.17,13.17,0,0,1-7.08,8.42c-1.69.87-10.67,5.33-26.14,10.13A307.73,307.73,0,0,1,249,163.8l-.35-.92.19,1A24.91,24.91,0,0,1,243.92,164.3Zm20.75-99.09a10.86,10.86,0,0,0-2.87.37c-1.81.51-3.84,1.23-6.41,2.14-5.39,1.91-12.75,4.52-25.5,7.91-10.75,2.87-20.19,4.75-27.07,6.12a92.1,92.1,0,0,0-10.67,2.44,6.26,6.26,0,0,0-3.52,3.61,7.52,7.52,0,0,0,.38,6.07l34,56.46c4.57,9.52,16.49,13.35,25.39,11.59l.18,0a306.74,306.74,0,0,0,32-8c15.31-4.76,24.16-9.15,25.79-10a11.38,11.38,0,0,0,6.14-7.25,13.43,13.43,0,0,0-1.6-10.95L277,72A15.2,15.2,0,0,0,264.67,65.21Z"/><path d="M178,170.23a244.69,244.69,0,0,1,14.76,33.65l15.9,27.8a15.4,15.4,0,0,0,17.52,7.19l107.65-29.79c4-1.18,5.72-4.83,4.77-10-6-32.59-23.19-68.67-25.23-72.88l0,0h0l-.88.43h0l-.87.43h0a13.45,13.45,0,0,1,.65,10.29,11.37,11.37,0,0,1-5.93,6.59c-1.63.83-10.48,5.22-25.79,10a305.61,305.61,0,0,1-32.16,8c-8.9,1.76-20.82-2.07-25.39-11.59L189,93.87a7.37,7.37,0,0,1,.06-7l.59-1.07-1.84-.56-.41.57c-.17.25-17.49,24.6-28.1,50.87a14.82,14.82,0,0,0-.48,1.42l-.12.43,15.53,24.57a12.3,12.3,0,0,1,.74,1.32c.12.26.37.72.71,1.36l-.13,0,.05.14.15-.06.24.45c.13.23.26.49.41.75l-.43.14,0,.15.48-.14.64,1.21-.9.2,0,.14,1-.17c.22.39.44.81.67,1.25"/><path class="cls-1" d="M384.6,125.43c-9.77,1.93-21.79-2.41-26.42-12.05l-34-56.53c-2.26-4.59-.27-9.47,3.66-11s18.83-3.54,37.85-8.6,26.35-8.5,31.89-10,12.78,1.34,16.24,6.82l34,53.7c4.35,6.88,2.29,16.21-4.85,19.56-.18.08-9.11,4.83-26,10.08A306.47,306.47,0,0,1,384.6,125.43Z"/><path d="M379.93,126.85c-8.63,0-18.33-4.11-22.63-13l-34-56.45a9.44,9.44,0,0,1-.49-7.7,8.2,8.2,0,0,1,4.62-4.72,89.35,89.35,0,0,1,11-2.54c6.86-1.37,16.25-3.25,26.94-6.09,12.66-3.37,20-6,25.34-7.87,2.6-.92,4.66-1.65,6.53-2.18,6.08-1.69,13.7,1.48,17.33,7.24l34,53.7a15.45,15.45,0,0,1,1.82,12.54,13.19,13.19,0,0,1-7.09,8.42c-1.69.87-10.67,5.33-26.14,10.13A307.78,307.78,0,0,1,385,126.35l-.36-.92.19.95A24.88,24.88,0,0,1,379.93,126.85Zm20.74-99.09a10.91,10.91,0,0,0-2.87.37c-1.81.51-3.84,1.23-6.41,2.14-5.38,1.91-12.75,4.52-25.49,7.91-10.75,2.86-20.18,4.74-27.06,6.12a90,90,0,0,0-10.69,2.45,6.17,6.17,0,0,0-3.51,3.6,7.48,7.48,0,0,0,.38,6.07l34,56.46c4.57,9.52,16.48,13.35,25.39,11.59l.18,0a307.33,307.33,0,0,0,32-8c15.31-4.76,24.16-9.15,25.78-10a11.36,11.36,0,0,0,6.15-7.25,13.5,13.5,0,0,0-1.6-11L413,34.53A15.2,15.2,0,0,0,400.67,27.76Z"/><path d="M474.65,161.62c-6-32.66-23.2-68.69-25.24-72.88l0,0-.87.43h0l-.88.43h0v0a13.44,13.44,0,0,1,.64,10.27,11.33,11.33,0,0,1-5.93,6.59c-1.62.83-10.47,5.22-25.78,10a306.2,306.2,0,0,1-32.17,8c-8.91,1.76-20.82-2.07-25.39-11.59L325,56.42a7.31,7.31,0,0,1,.06-7l.58-1.07-1.84-.56-.4.57c-.18.25-17.49,24.6-28.1,50.87a3.9,3.9,0,0,0-.17.48l-.22.65,16,25.28a14.2,14.2,0,0,1,.73,1.32c.12.25.36.74.7,1.46l-.09,0,.06.17.11-.05c.15.33.33.7.52,1.12l-.3.07.06.33.38-.1.53,1.14-.71.09,0,.34.8-.14.6,1.3H314l-1,.12,1,.14h.48a384.87,384.87,0,0,1,14.21,36l15.5,24.9a15.4,15.4,0,0,0,17.52,7.19l108.18-29.56C473.86,170.45,475.6,166.8,474.65,161.62Z"/><polygon points="313.01 134.44 313.03 134.44 312.93 134.44 312.95 134.44 312.93 134.44 313.89 134.56 314.88 134.54 314.81 134.54 314.88 134.54 313.01 134.44"/><path d="M254,105.65a1.12,1.12,0,0,1,.27-.68,2.21,2.21,0,0,1,.85-.42,2.07,2.07,0,0,1,1.31-.1,2.1,2.1,0,0,1,.81.92l1.23,2.24.07.13c.24.47.29.83.13,1.09a1.88,1.88,0,0,1-1.11.66,2.36,2.36,0,0,1-2.14-.4,1.24,1.24,0,0,1-.23-.17,4.26,4.26,0,0,0-1.9-.7,5.33,5.33,0,0,0-2.17.23,4.21,4.21,0,0,0-2,1.18,1.31,1.31,0,0,0-.22,1.53q.55,1.08,4.9.49l1.15-.16a12.49,12.49,0,0,1,5.18.18,4.61,4.61,0,0,1,2.79,2.36,3.4,3.4,0,0,1-.25,3.94c-.91,1.17-2.59,2.14-5,2.88a22.37,22.37,0,0,1-2.65.64,16.36,16.36,0,0,1-2.41.22,1.11,1.11,0,0,1-.36.62,2.25,2.25,0,0,1-.84.42,2.8,2.8,0,0,1-1.54.13,1.64,1.64,0,0,1-.93-.87l-1.5-2.75-.06-.13a1.32,1.32,0,0,1-.18-1.2,1.89,1.89,0,0,1,1.19-.72,2.65,2.65,0,0,1,2.3.58,4.21,4.21,0,0,0,.47.34,5.13,5.13,0,0,0,2.41.84,8,8,0,0,0,2.93-.37,4.27,4.27,0,0,0,2-1.13,1.28,1.28,0,0,0,.15-1.51c-.44-.84-2-1.11-4.64-.8l-1.88.2a13.27,13.27,0,0,1-5-.21,4.17,4.17,0,0,1-2.46-2.11,3.5,3.5,0,0,1,.33-3.91,8.4,8.4,0,0,1,4.59-2.87,13.69,13.69,0,0,1,2.2-.48A15.86,15.86,0,0,1,254,105.65Z"/><path d="M385.72,72.73l4.55,8.79,7.19-2.18-1.09-2.09a1.52,1.52,0,0,1-.21-1.28,1.68,1.68,0,0,1,1.11-.73,2.36,2.36,0,0,1,1.5,0,2,2,0,0,1,1,1l1.87,3.61c.22.43.26.75.11,1a2.44,2.44,0,0,1-1.22.62L386.2,85.74a3,3,0,0,1-1.63.14,1.62,1.62,0,0,1-1-.87,1,1,0,0,1-.07-1.11,2.46,2.46,0,0,1,1.32-.74l1.39-.42-4.55-8.8-1.39.43a3,3,0,0,1-1.63.13,1.57,1.57,0,0,1-.95-.85,1.09,1.09,0,0,1-.05-1.14,2.36,2.36,0,0,1,1.32-.76l6.73-2a3,3,0,0,1,1.64-.13,1.54,1.54,0,0,1,1,.85,1.06,1.06,0,0,1,0,1.13,2.42,2.42,0,0,1-1.32.76Z"/><path class="cls-1" d="M262,219.94a1.75,1.75,0,0,1-.32.34,1.06,1.06,0,0,1-.35.18.41.41,0,0,1-.42-.08,1.27,1.27,0,0,1-.22-.66l-.15-1.05a1.37,1.37,0,0,1,0-.78.62.62,0,0,1,.46-.35.64.64,0,0,1,.69.29,2.08,2.08,0,0,0,.3.3,1.87,1.87,0,0,0,.81.34,2.65,2.65,0,0,0,1-.08,1.36,1.36,0,0,0,.72-.42.79.79,0,0,0,.19-.65c-.06-.43-.61-.6-1.63-.5l-.54.05a2.82,2.82,0,0,1-1.79-.31,1.85,1.85,0,0,1-.78-1.37,2.49,2.49,0,0,1,.4-1.9,3.09,3.09,0,0,1,1.8-1.11A5.2,5.2,0,0,1,263,212a6.21,6.21,0,0,1,1,0,1.18,1.18,0,0,1,.24-.37.67.67,0,0,1,.33-.18.41.41,0,0,1,.43.09,1,1,0,0,1,.24.58l.14,1a.94.94,0,0,1-.06.57.54.54,0,0,1-.38.29,1.69,1.69,0,0,1-1-.33,1.84,1.84,0,0,0-1.38-.23,1.53,1.53,0,0,0-.75.41.71.71,0,0,0-.2.63c0,.37.48.52,1.28.44l.55-.06a3.8,3.8,0,0,1,2.13.26,1.83,1.83,0,0,1,.78,1.4,2.65,2.65,0,0,1-.45,2.05,3.38,3.38,0,0,1-2,1.19,5.32,5.32,0,0,1-2,.17Z"/><path class="cls-1" d="M270,214.65a2.07,2.07,0,0,0,.85,1.15,1.77,1.77,0,0,0,1.36.1,3.45,3.45,0,0,0,1.52-.9,4.14,4.14,0,0,1,.88-.72.41.41,0,0,1,.42.11.82.82,0,0,1,.24.52,1.79,1.79,0,0,1-.71,1.53,4.93,4.93,0,0,1-2.16,1.12,3.12,3.12,0,0,1-2.72-.42,3.59,3.59,0,0,1-1.4-2.52,4.41,4.41,0,0,1,.57-3,3.88,3.88,0,0,1,2.4-1.75,2.86,2.86,0,0,1,2.48.41,3.18,3.18,0,0,1,1.29,2.24.91.91,0,0,1-.09.69,1.28,1.28,0,0,1-.73.38Zm3.32-2.15a1.6,1.6,0,0,0-.74-1,1.64,1.64,0,0,0-1.25-.09,1.89,1.89,0,0,0-1.08.68,2.36,2.36,0,0,0-.43,1.32Z"/><path class="cls-1" d="M281.27,213.23l1.4-.37a.79.79,0,0,1,.66,0,.87.87,0,0,1,.28.61,1,1,0,0,1-.09.72.93.93,0,0,1-.59.37l-4.41,1.15a.76.76,0,0,1-.65-.05.88.88,0,0,1-.29-.62,1.09,1.09,0,0,1,.08-.71.92.92,0,0,1,.6-.36l1.4-.36-1-6.9-.72.18a.76.76,0,0,1-.66,0,.89.89,0,0,1-.29-.63,1.08,1.08,0,0,1,.08-.72.94.94,0,0,1,.61-.37l1.94-.51a.43.43,0,0,1,.3,0,.29.29,0,0,1,.14.22Z"/><path class="cls-1" d="M288.61,205.73l1.39-.36a.78.78,0,0,1,.67,0,.9.9,0,0,1,.29.61,1.14,1.14,0,0,1-.09.72,1,1,0,0,1-.61.37l-1.4.36.55,3.64,1.29-.34a.82.82,0,0,1,.67,0,.85.85,0,0,1,.28.61,1,1,0,0,1-.09.73.93.93,0,0,1-.6.37l-3.58.93a.78.78,0,0,1-.67,0,1,1,0,0,1-.29-.62,1.09,1.09,0,0,1,.09-.71,1,1,0,0,1,.61-.37l.69-.18-.54-3.63-.69.18a.81.81,0,0,1-.67,0,.9.9,0,0,1-.29-.62,1,1,0,0,1,.09-.72,1,1,0,0,1,.61-.36l.69-.18-.07-.45a3.34,3.34,0,0,1,.32-2.39,3.63,3.63,0,0,1,2.14-1.24,2.37,2.37,0,0,1,1.24-.07.7.7,0,0,1,.5.64.93.93,0,0,1-.09.58.68.68,0,0,1-.44.31,3.34,3.34,0,0,1-.61.09,5.4,5.4,0,0,0-.57.07,1.2,1.2,0,0,0-.8.55,2.23,2.23,0,0,0-.06,1.23Z"/><path class="cls-1" d="M298.42,208.76l1.4-.36a.82.82,0,0,1,.67,0,.85.85,0,0,1,.28.61,1,1,0,0,1-.09.72,1,1,0,0,1-.6.38l-4.39,1.14a.86.86,0,0,1-.67,0,.89.89,0,0,1-.29-.63,1,1,0,0,1,.09-.71,1,1,0,0,1,.61-.36l1.39-.36-.57-3.87-.74.19a.77.77,0,0,1-.65,0,.88.88,0,0,1-.29-.62,1,1,0,0,1,.08-.71.93.93,0,0,1,.6-.37l2-.51a.39.39,0,0,1,.29,0,.31.31,0,0,1,.14.23Zm-2.31-8.95c.32-.08.54-.06.67.06a2.13,2.13,0,0,1,.31,1,2.16,2.16,0,0,1,0,1c-.07.16-.28.28-.63.37s-.56.08-.68,0a1.14,1.14,0,0,1-.25-.69,3.63,3.63,0,0,1-.05-1.33A.8.8,0,0,1,296.11,199.81Z"/><path class="cls-1" d="M304.05,205.78a2,2,0,0,0,.85,1.14,1.74,1.74,0,0,0,1.35.11,3.4,3.4,0,0,0,1.52-.9,4,4,0,0,1,.88-.73.44.44,0,0,1,.43.12.87.87,0,0,1,.23.52,1.74,1.74,0,0,1-.71,1.52,4.79,4.79,0,0,1-2.15,1.12,3.08,3.08,0,0,1-2.72-.41,3.58,3.58,0,0,1-1.4-2.53,4.36,4.36,0,0,1,.57-3,3.81,3.81,0,0,1,2.4-1.74,2.8,2.8,0,0,1,2.47.4,3.24,3.24,0,0,1,1.3,2.25,1,1,0,0,1-.09.69,1.36,1.36,0,0,1-.74.37Zm3.31-2.16a1.57,1.57,0,0,0-.73-1,1.67,1.67,0,0,0-1.26-.1,2,2,0,0,0-1.08.68,2.5,2.5,0,0,0-.43,1.33Z"/><path class="cls-1" d="M402.1,179l1.4-.37a.81.81,0,0,1,.65,0,.86.86,0,0,1,.29.61,1.14,1.14,0,0,1-.09.72.93.93,0,0,1-.59.37l-4.41,1.15a.81.81,0,0,1-.65,0,.93.93,0,0,1-.29-.63,1,1,0,0,1,.08-.71,1,1,0,0,1,.6-.36l1.39-.36-1-6.9-.72.18a.78.78,0,0,1-.67,0,1,1,0,0,1-.29-.62,1.16,1.16,0,0,1,.09-.73.94.94,0,0,1,.61-.37l1.94-.51a.43.43,0,0,1,.3,0,.3.3,0,0,1,.13.23Z"/><path class="cls-1" d="M407.83,175.93a2.07,2.07,0,0,0,.85,1.15,1.77,1.77,0,0,0,1.36.1,3.52,3.52,0,0,0,1.52-.89,3.77,3.77,0,0,1,.88-.73.42.42,0,0,1,.42.12.87.87,0,0,1,.24.52,1.81,1.81,0,0,1-.71,1.52,4.83,4.83,0,0,1-2.16,1.12,3.08,3.08,0,0,1-2.72-.41,3.61,3.61,0,0,1-1.4-2.53,4.36,4.36,0,0,1,.57-3,3.83,3.83,0,0,1,2.4-1.74,2.83,2.83,0,0,1,2.48.4,3.27,3.27,0,0,1,1.29,2.25.92.92,0,0,1-.09.69,1.28,1.28,0,0,1-.74.37Zm3.32-2.15a1.51,1.51,0,0,0-2-1.09,1.89,1.89,0,0,0-1.09.68,2.39,2.39,0,0,0-.42,1.33Z"/><path class="cls-1" d="M421,174l.11,0a.62.62,0,0,1,.57.09.94.94,0,0,1,.28.6,1.11,1.11,0,0,1-.09.71.94.94,0,0,1-.61.36l-.61.17a.7.7,0,0,1-.51,0,1,1,0,0,1-.34-.48,5,5,0,0,1-1.05,1,3.83,3.83,0,0,1-1.18.55,2,2,0,0,1-1.74-.21,2.19,2.19,0,0,1-.86-1.59,2.56,2.56,0,0,1,.5-2,3.72,3.72,0,0,1,2.07-1.22,6.07,6.07,0,0,1,.67-.14c.24,0,.5-.06.8-.08l0-.15a1.67,1.67,0,0,0-.44-1,.94.94,0,0,0-.89-.16,2.67,2.67,0,0,0-1,.68,2.7,2.7,0,0,1-.92.64.6.6,0,0,1-.53-.09.74.74,0,0,1-.27-.53,1.33,1.33,0,0,1,.61-1.22,5.54,5.54,0,0,1,2-.92,2.52,2.52,0,0,1,2.08.13,3,3,0,0,1,.93,2.06Zm-1.8-1.13a5.85,5.85,0,0,0-.62,0,3.59,3.59,0,0,0-.51.09,2.14,2.14,0,0,0-1.08.58,1.08,1.08,0,0,0-.28.92.79.79,0,0,0,.36.63,1,1,0,0,0,.79,0,2.55,2.55,0,0,0,.82-.38,3.25,3.25,0,0,0,.7-.69Z"/><path class="cls-1" d="M427.47,167.29l-.06-.41a.34.34,0,0,1,0-.27.51.51,0,0,1,.27-.16l1.06-.28a.82.82,0,0,1,.66,0,.9.9,0,0,1,.29.62,1.1,1.1,0,0,1-.09.7.72.72,0,0,1-.49.36l-.11,0,.82,5.47a3.84,3.84,0,0,1-.4,2.73,3.79,3.79,0,0,1-2.36,1.43,3.62,3.62,0,0,1-1.6.16.75.75,0,0,1-.61-.68,1,1,0,0,1,.11-.67.79.79,0,0,1,.49-.38l.57-.07a6.78,6.78,0,0,0,.89-.16,1.81,1.81,0,0,0,1.22-.76,2.74,2.74,0,0,0,.12-1.64l-.05-.35a4.17,4.17,0,0,1-.84.71,2.89,2.89,0,0,1-.92.4,2.45,2.45,0,0,1-2.28-.44,3.5,3.5,0,0,1-1.21-2.34,4.46,4.46,0,0,1,.47-2.89,3.22,3.22,0,0,1,2.06-1.61,2.19,2.19,0,0,1,1.07-.05A2,2,0,0,1,427.47,167.29Zm-1.5,1.16a1.5,1.5,0,0,0-1,.84,2.57,2.57,0,0,0-.2,1.55,2.11,2.11,0,0,0,.63,1.31,1.18,1.18,0,0,0,1.14.29,1.51,1.51,0,0,0,1-.84,2.59,2.59,0,0,0,.21-1.53,2.18,2.18,0,0,0-.64-1.33A1.17,1.17,0,0,0,426,168.45Z"/><path class="cls-1" d="M435.83,166.15l-.1,0a.56.56,0,0,1-.56-.08.87.87,0,0,1-.28-.6,1,1,0,0,1,.08-.71.93.93,0,0,1,.6-.37l1.23-.32a.4.4,0,0,1,.29,0,.28.28,0,0,1,.13.22l.79,5.27.1,0a.63.63,0,0,1,.57.08.87.87,0,0,1,.28.59,1,1,0,0,1-.09.73,1,1,0,0,1-.6.37l-1.09.28a.37.37,0,0,1-.3,0,.31.31,0,0,1-.14-.24l-.09-.6a2.67,2.67,0,0,1-.64,1.06,2.3,2.3,0,0,1-1,.56,1.58,1.58,0,0,1-1.66-.37,4,4,0,0,1-.86-2.23l-.4-2.65-.11,0a.61.61,0,0,1-.57-.09.94.94,0,0,1-.28-.6,1,1,0,0,1,.09-.71,1,1,0,0,1,.61-.37l1.22-.32a.37.37,0,0,1,.28,0,.33.33,0,0,1,.13.23L434,169a2.9,2.9,0,0,0,.43,1.32.7.7,0,0,0,.78.2,1.22,1.22,0,0,0,.82-.72,2.43,2.43,0,0,0,.16-1.37Z"/><path class="cls-1" d="M441.92,167.06a2,2,0,0,0,.85,1.15,1.74,1.74,0,0,0,1.35.1,3.45,3.45,0,0,0,1.52-.9,4.14,4.14,0,0,1,.88-.72.43.43,0,0,1,.43.11.87.87,0,0,1,.23.52,1.74,1.74,0,0,1-.71,1.52,4.86,4.86,0,0,1-2.15,1.13,3.11,3.11,0,0,1-2.72-.42,3.58,3.58,0,0,1-1.4-2.52,4.35,4.35,0,0,1,.57-3,3.85,3.85,0,0,1,2.4-1.75,2.84,2.84,0,0,1,2.47.41,3.2,3.2,0,0,1,1.3,2.24,1,1,0,0,1-.09.69,1.36,1.36,0,0,1-.74.38Zm3.31-2.15a1.57,1.57,0,0,0-.74-1,1.64,1.64,0,0,0-1.25-.09,1.89,1.89,0,0,0-1.08.68,2.44,2.44,0,0,0-.43,1.32Z"/><path class="cls-1" d="M111.94,200.34c-9.77,1.93-21.8-2.41-26.42-12.05l-34-56.52c-2.26-4.59-.27-9.47,3.65-11S74,117.22,93,112.16s26.36-8.51,31.89-10,12.78,1.34,16.24,6.81l34,53.71c4.35,6.87,2.29,16.2-4.86,19.56-.18.08-9.1,4.82-26,10.08A306.26,306.26,0,0,1,111.94,200.34Z"/><path d="M107.26,201.76c-8.62,0-18.33-4.1-22.62-13l-34-56.44a9.46,9.46,0,0,1-.49-7.71,8.24,8.24,0,0,1,4.62-4.71c1.8-.71,5.67-1.48,11-2.55,6.86-1.37,16.25-3.24,26.94-6.09,12.66-3.37,20-6,25.34-7.86,2.61-.93,4.67-1.66,6.54-2.18,6.07-1.7,13.69,1.48,17.33,7.23l33.95,53.71a15.41,15.41,0,0,1,1.82,12.54,13.22,13.22,0,0,1-7.08,8.42c-2.37,1.21-11.1,5.45-26.14,10.13a313.22,313.22,0,0,1-32.2,8.07l-.36-.93.19,1A24.81,24.81,0,0,1,107.26,201.76ZM128,102.67a10.57,10.57,0,0,0-2.87.38c-1.8.5-3.83,1.22-6.41,2.14-5.38,1.9-12.75,4.52-25.49,7.91-10.74,2.86-20.17,4.74-27.06,6.11a91.76,91.76,0,0,0-10.68,2.45,6.24,6.24,0,0,0-3.52,3.6,7.52,7.52,0,0,0,.38,6.07l34,56.46c4.58,9.53,16.49,13.35,25.4,11.6l.18,0a309.1,309.1,0,0,0,32-8c14.89-4.63,23.49-8.81,25.78-10a11.38,11.38,0,0,0,6.15-7.26,13.44,13.44,0,0,0-1.6-10.95l-34-53.7A15.21,15.21,0,0,0,128,102.67Z"/><path d="M202,236.53c-6-32.66-23.2-68.68-25.23-72.88l0,0-.88.42h0l-.87.43v0a13.47,13.47,0,0,1,.64,10.26,11.4,11.4,0,0,1-5.94,6.6c-2.29,1.17-10.89,5.35-25.78,10a311.67,311.67,0,0,1-32.16,8c-8.91,1.75-20.82-2.07-25.4-11.6l-34-56.46a7.31,7.31,0,0,1,.06-7l.59-1.07-1.84-.55-.41.57c-.17.24-17.49,24.6-28.1,50.86a15,15,0,0,0,.93,13.15l46.77,81.8a15.38,15.38,0,0,0,13.37,7.77,15.61,15.61,0,0,0,4.15-.57l109.34-29.79C201.19,245.37,202.93,241.71,202,236.53Z"/><path d="M126.05,152.93l.26-.08a2.59,2.59,0,0,1,1.47-.07,1.56,1.56,0,0,1,.93.82,1.05,1.05,0,0,1,0,1.14,2.48,2.48,0,0,1-1.38.77L122.62,157a3.23,3.23,0,0,1-1.7.16,1.52,1.52,0,0,1-1-.86,1,1,0,0,1,0-1.12,2.64,2.64,0,0,1,1.4-.77l.55-.16L120.48,153l-6.83,2.07,0,1.59.55-.17a3.36,3.36,0,0,1,1.7-.17,1.57,1.57,0,0,1,1,.83,1.09,1.09,0,0,1,0,1.15,2.62,2.62,0,0,1-1.38.77l-4.08,1.24a3.38,3.38,0,0,1-1.71.16,1.55,1.55,0,0,1-1-.87,1,1,0,0,1,0-1.08,1.9,1.9,0,0,1,1.12-.72l.27-.08-.31-10.07-1.26.38a3.26,3.26,0,0,1-1.71.16,1.52,1.52,0,0,1-1-.85,1.08,1.08,0,0,1-.06-1.14,2.56,2.56,0,0,1,1.39-.77l5.92-1.8a2.61,2.61,0,0,1,2.56.53l0,0Zm-12.84-6.28.29,5.67,4.58-1.39Z"/><path class="cls-1" d="M122.05,255.32l.11,0a.65.65,0,0,1,.57.08.94.94,0,0,1,.28.6,1.07,1.07,0,0,1-.09.72,1,1,0,0,1-.61.36l-.61.16a.64.64,0,0,1-.5,0,1,1,0,0,1-.35-.48,5,5,0,0,1-1,1,3.66,3.66,0,0,1-1.19.55,2,2,0,0,1-1.74-.2,2.23,2.23,0,0,1-.86-1.59,2.56,2.56,0,0,1,.5-2.05,3.73,3.73,0,0,1,2.07-1.23,6.13,6.13,0,0,1,.67-.13l.81-.08,0-.15a1.7,1.7,0,0,0-.44-1,1,1,0,0,0-.89-.15,2.62,2.62,0,0,0-1,.68,2.86,2.86,0,0,1-.92.64.61.61,0,0,1-.53-.09.78.78,0,0,1-.27-.53,1.32,1.32,0,0,1,.62-1.22,5.24,5.24,0,0,1,2-.92,2.49,2.49,0,0,1,2.08.13,3,3,0,0,1,.92,2.06Zm-1.8-1.13a5.66,5.66,0,0,0-.61,0,2.7,2.7,0,0,0-.52.08,2.2,2.2,0,0,0-1.08.59,1.08,1.08,0,0,0-.28.92.87.87,0,0,0,.36.63,1,1,0,0,0,.79.05,2.67,2.67,0,0,0,.82-.38,3.31,3.31,0,0,0,.7-.7Z"/><path class="cls-1" d="M128.72,253.58l1.4-.36a.79.79,0,0,1,.66,0,.85.85,0,0,1,.28.61,1.08,1.08,0,0,1-.08.72,1,1,0,0,1-.6.37L126,256.1a.77.77,0,0,1-.65,0,.93.93,0,0,1-.28-.63,1,1,0,0,1,.07-.71,1,1,0,0,1,.6-.36l1.4-.36-1-6.9-.72.19a.79.79,0,0,1-.66,0,.93.93,0,0,1-.29-.62,1,1,0,0,1,.09-.72.93.93,0,0,1,.6-.38l2-.51a.39.39,0,0,1,.29,0,.31.31,0,0,1,.14.23Z"/><path class="cls-1" d="M139.1,250.88l.1,0a.61.61,0,0,1,.57.09.94.94,0,0,1,.28.59,1,1,0,0,1-.09.72,1,1,0,0,1-.6.37l-.61.16a.7.7,0,0,1-.51,0,1,1,0,0,1-.35-.48,4.75,4.75,0,0,1-1,1,3.88,3.88,0,0,1-1.19.55,2,2,0,0,1-1.74-.21,2.23,2.23,0,0,1-.86-1.59,2.6,2.6,0,0,1,.5-2.05,3.72,3.72,0,0,1,2.07-1.22,6.6,6.6,0,0,1,.67-.14l.81-.08,0-.15a1.73,1.73,0,0,0-.45-1,.93.93,0,0,0-.89-.16,2.74,2.74,0,0,0-1,.68,2.61,2.61,0,0,1-.92.64.58.58,0,0,1-.52-.09.75.75,0,0,1-.28-.53,1.33,1.33,0,0,1,.62-1.22,5.47,5.47,0,0,1,2-.92,2.49,2.49,0,0,1,2.08.13,3.06,3.06,0,0,1,.93,2.06Zm-1.8-1.13a5.72,5.72,0,0,0-.62,0,2.48,2.48,0,0,0-.51.08,2.23,2.23,0,0,0-1.09.59,1.11,1.11,0,0,0-.28.92.83.83,0,0,0,.36.63,1,1,0,0,0,.79.05,2.46,2.46,0,0,0,.82-.38,3.28,3.28,0,0,0,.71-.69Z"/><path class="cls-1" d="M144.63,244.18a2.06,2.06,0,0,1,.54-.71,1.89,1.89,0,0,1,.74-.39,1.3,1.3,0,0,1,1.38.31,4.13,4.13,0,0,1,.7,2l.45,3,.1,0a.47.47,0,0,1,.48.1,1,1,0,0,1,.25.6,1.23,1.23,0,0,1-.05.72.75.75,0,0,1-.52.34l-1.1.29a.35.35,0,0,1-.29,0,.28.28,0,0,1-.13-.22l-.67-4.49a1.7,1.7,0,0,0-.26-.76.39.39,0,0,0-.44-.16.65.65,0,0,0-.45.48,2.44,2.44,0,0,0,0,1.06l.41,2.78.1,0a.49.49,0,0,1,.49.1,1,1,0,0,1,.25.6,1.15,1.15,0,0,1-.06.72.75.75,0,0,1-.52.34l-1.1.29a.38.38,0,0,1-.3,0,.27.27,0,0,1-.14-.22l-.67-4.49a1.64,1.64,0,0,0-.25-.76.36.36,0,0,0-.42-.16.66.66,0,0,0-.46.49,2.4,2.4,0,0,0,0,1.06l.42,2.78.1,0a.47.47,0,0,1,.48.1,1,1,0,0,1,.25.6,1.14,1.14,0,0,1-.06.72.8.8,0,0,1-.51.35l-1.48.38a.63.63,0,0,1-.57-.06,1.06,1.06,0,0,1-.26-.64,1.23,1.23,0,0,1,.05-.68.61.61,0,0,1,.43-.33l.09,0-.58-3.86-.08,0a.48.48,0,0,1-.5-.1,1,1,0,0,1-.26-.61,1.12,1.12,0,0,1,.07-.71.79.79,0,0,1,.51-.34l.88-.23a.41.41,0,0,1,.39,0,.87.87,0,0,1,.16.48,2.08,2.08,0,0,1,.49-.77,1.62,1.62,0,0,1,.72-.41,1.2,1.2,0,0,1,.68,0A1.28,1.28,0,0,1,144.63,244.18Z"/><path class="cls-1" d="M151.5,246.13a2,2,0,0,0,.85,1.14,1.77,1.77,0,0,0,1.36.11,3.51,3.51,0,0,0,1.52-.9,3.59,3.59,0,0,1,.88-.72.41.41,0,0,1,.42.11.94.94,0,0,1,.24.52,1.82,1.82,0,0,1-.71,1.53A4.93,4.93,0,0,1,153.9,249a3.12,3.12,0,0,1-2.72-.42,3.61,3.61,0,0,1-1.4-2.52,4.35,4.35,0,0,1,.57-3,3.81,3.81,0,0,1,2.4-1.75,2.83,2.83,0,0,1,2.48.41,3.23,3.23,0,0,1,1.29,2.24.92.92,0,0,1-.09.69,1.28,1.28,0,0,1-.74.38Zm3.32-2.15a1.6,1.6,0,0,0-.74-1,1.71,1.71,0,0,0-1.26-.1,2,2,0,0,0-1.08.69,2.35,2.35,0,0,0-.42,1.32Z"/><path class="cls-1" d="M164.78,244.19l.11,0a.62.62,0,0,1,.56.08,1,1,0,0,1,.27.6,1.07,1.07,0,0,1-.09.72.93.93,0,0,1-.59.37l-1,.26a.37.37,0,0,1-.3,0,.29.29,0,0,1-.14-.22l-.08-.56a2.77,2.77,0,0,1-.7,1,2.58,2.58,0,0,1-1.08.58,2.44,2.44,0,0,1-2.29-.51,3.73,3.73,0,0,1-1.26-2.43,4.67,4.67,0,0,1,.46-3,3.15,3.15,0,0,1,2-1.67,2.2,2.2,0,0,1,.92-.05,2.57,2.57,0,0,1,.89.32l-.3-2-.87.23a.77.77,0,0,1-.67,0,.88.88,0,0,1-.28-.62,1.08,1.08,0,0,1,.08-.72,1,1,0,0,1,.61-.38l2-.52c.15,0,.26,0,.32,0a.74.74,0,0,1,.14.39Zm-3.63-3.11a1.45,1.45,0,0,0-1,.85,2.63,2.63,0,0,0-.2,1.59,2.27,2.27,0,0,0,.64,1.4,1.14,1.14,0,0,0,1.14.31,1.48,1.48,0,0,0,1-.86,2.69,2.69,0,0,0,.19-1.61,2.18,2.18,0,0,0-.64-1.37A1.13,1.13,0,0,0,161.15,241.08Z"/><path class="cls-1" d="M173.18,242l.11,0a.57.57,0,0,1,.56.08.9.9,0,0,1,.29.6,1.08,1.08,0,0,1-.1.72,1,1,0,0,1-.6.36l-.61.16a.66.66,0,0,1-.51,0,1.14,1.14,0,0,1-.34-.48,5,5,0,0,1-1,1,3.83,3.83,0,0,1-1.18.55,2,2,0,0,1-1.74-.21,2.22,2.22,0,0,1-.86-1.58,2.55,2.55,0,0,1,.5-2.05,3.64,3.64,0,0,1,2.07-1.23,6.13,6.13,0,0,1,.67-.13c.24,0,.5-.06.8-.08l0-.15a1.67,1.67,0,0,0-.44-1,.93.93,0,0,0-.9-.15,2.67,2.67,0,0,0-1,.67,2.77,2.77,0,0,1-.92.65.6.6,0,0,1-.53-.09.78.78,0,0,1-.28-.53,1.34,1.34,0,0,1,.62-1.22,5.24,5.24,0,0,1,2-.92,2.45,2.45,0,0,1,2.08.13,2.92,2.92,0,0,1,.93,2.05Zm-1.8-1.12a6.12,6.12,0,0,0-.62,0,3.59,3.59,0,0,0-.51.09,2.14,2.14,0,0,0-1.08.58,1.1,1.1,0,0,0-.29.92.85.85,0,0,0,.37.64,1,1,0,0,0,.78,0,2.35,2.35,0,0,0,.82-.37,3.35,3.35,0,0,0,.71-.7Z"/></svg>